<svg t="1593535132917" class="icon" viewBox="0 0 1024 1024" version="1.1" xmlns="http://www.w3.org/2000/svg" p-id="1460" width="200" height="200">
    <path fill="#343131" d="M486.4 102.4A332.8 332.8 0 0 1 819.2 435.2v419.84a66.56 66.56 0 0 1-66.56 66.56h-17.1008c-28.928 0-54.0672-19.968-60.5696-48.1792s-31.5904-48.1792-60.5184-48.1792h-0.9728c-28.928 0-54.016 19.968-60.5184 48.128S521.3696 921.6 492.4416 921.6h-12.0832c-28.928 0-54.016-19.968-60.5184-48.1792s-31.5904-48.1792-60.5184-48.1792h-0.9728c-28.928 0-54.0672 19.968-60.5184 48.128-6.5024 28.2624-31.6416 48.2304-60.5696 48.2304H220.16A66.56 66.56 0 0 1 153.6 855.04V435.2A332.8 332.8 0 0 1 486.4 102.4z m-28.16 380.3648c24.064 0 43.52-19.6608 43.52-43.9296s-19.456-43.8784-43.52-43.8784-43.52 19.6608-43.52 43.8784 19.456 43.9296 43.52 43.9296z m232.0896 0c24.064 0 43.52-19.6608 43.52-43.9296s-19.456-43.8784-43.52-43.8784-43.52 19.6608-43.52 43.8784 19.456 43.9296 43.52 43.9296z"
    p-id="1461"></path>
</svg>